<?xml version="1.0" encoding="UTF-8" standalone="no"?>
<svg
   xmlns:dc="http://purl.org/dc/elements/1.1/"
   xmlns:cc="http://creativecommons.org/ns#"
   xmlns:rdf="http://www.w3.org/1999/02/22-rdf-syntax-ns#"
   xmlns:svg="http://www.w3.org/2000/svg"
   xmlns="http://www.w3.org/2000/svg"
   xmlns:sodipodi="http://sodipodi.sourceforge.net/DTD/sodipodi-0.dtd"
   xmlns:inkscape="http://www.inkscape.org/namespaces/inkscape"
   viewBox="0 0 243.92 179.7"
   version="1.1"
   id="svg4653"
   sodipodi:docname="camera.svg"
   inkscape:version="0.92.1 r15371">
  <metadata
     id="metadata4657">
    <rdf:RDF>
      <cc:Work
         rdf:about="">
        <dc:format>image/svg+xml</dc:format>
        <dc:type
           rdf:resource="http://purl.org/dc/dcmitype/StillImage" />
      </cc:Work>
    </rdf:RDF>
  </metadata>
  <sodipodi:namedview
     pagecolor="#ffffff"
     bordercolor="#666666"
     borderopacity="1"
     objecttolerance="10"
     gridtolerance="10"
     guidetolerance="10"
     inkscape:pageopacity="0"
     inkscape:pageshadow="2"
     inkscape:window-width="640"
     inkscape:window-height="480"
     id="namedview4655"
     showgrid="false"
     inkscape:zoom="1.3133"
     inkscape:cx="121.96"
     inkscape:cy="89.849998"
     inkscape:window-x="75"
     inkscape:window-y="34"
     inkscape:window-maximized="0"
     inkscape:current-layer="svg4653" />
  <defs
     id="defs4644">
    <style
       id="style4642">.cls-1{fill:gray;}</style>
  </defs>
  <title
     id="title4646">Camera</title>
  <g
     id="Layer_2"
     data-name="Layer 2"
     style="fill:#ffffff">
    <g
       id="Layer_4"
       data-name="Layer 4"
       style="fill:#ffffff">
      <path
         id="Corpo"
         class="cls-1"
         d="M243.92,45.37v117.9c-.11.7-.18,1.4-.33,2.09a17.58,17.58,0,0,1-9.37,12.36,18.72,18.72,0,0,1-8.93,2H18.78c-.41,0-.81,0-1.22,0a17.67,17.67,0,0,1-15.08-8.88A18.65,18.65,0,0,1,0,160.88q0-56.2,0-112.41c0-1.15.05-2.3.17-3.45a17.29,17.29,0,0,1,6-11.71,17.59,17.59,0,0,1,11.94-4.38h71a23.33,23.33,0,0,0,10.13-2.22,27.3,27.3,0,0,0,8.24-6.19c2.15-2.3,4.15-4.74,6.28-7.06,1.92-2.1,3.81-4.23,5.9-6.16A26.48,26.48,0,0,1,138,0c6.47-.07,12.94,0,19.41,0A26.82,26.82,0,0,1,168,2.25a29.26,29.26,0,0,1,9.68,6.94c2.26,2.39,4.35,4.93,6.56,7.35,1.82,2,3.63,4,5.6,5.88A23.57,23.57,0,0,0,206.72,29c6.3-.06,12.6,0,18.9,0a22.61,22.61,0,0,1,4.14.39,17.54,17.54,0,0,1,14,15.25A5.71,5.71,0,0,0,243.92,45.37ZM147.71,163.05a57.82,57.82,0,1,0-57.83-57.8A57.84,57.84,0,0,0,147.71,163.05Zm.07-157.17h0c-2.44,0-4.87-.06-7.31,0a8.49,8.49,0,0,0-8.17,8.65A8.5,8.5,0,0,0,140.56,23c4.77.07,9.54.08,14.31,0a8.57,8.57,0,0,0-.19-17.14C152.38,5.85,150.08,5.88,147.78,5.88Z"
         style="fill:#ffffff" />
      <path
         id="Click"
         class="cls-1"
         d="M24.49,26.42a7.66,7.66,0,0,1,2.11-5.3,8.3,8.3,0,0,1,6.25-2.72q9.45-.05,18.89,0a8.24,8.24,0,0,1,8.08,6.07,13.43,13.43,0,0,1,.25,1.4,4,4,0,0,1,0,.55Z"
         style="fill:#ffffff" />
      <path
         id="Lente"
         class="cls-1"
         d="M103,79.17a11.93,11.93,0,0,0,6.36,7.46,11.51,11.51,0,0,0,7.53.84,11.67,11.67,0,0,0,9.2-11,11.29,11.29,0,0,0-2.69-8,11.86,11.86,0,0,0-7.28-4.14c14.57-12.3,42.15-16.71,63.65.22a51.8,51.8,0,0,1-63.87,81.56C92.89,128.11,91.37,98.09,103,79.17Zm93,19.88a61.89,61.89,0,0,1-54.6,54.54C173,155.63,198.26,128.92,196,99.05Zm-55.48-3.61a4.52,4.52,0,1,0-4.47,4.57A4.53,4.53,0,0,0,140.56,95.44Z"
         style="fill:#ffffff" />
    </g>
  </g>
</svg>
