<svg xmlns="http://www.w3.org/2000/svg" viewBox="0 0 391.66 409.21"><defs><style>.cls-1{fill:#bababa;}.cls-2{fill:#fff;}.cls-3{fill:gray;}.cls-4{fill:#68ff35;}.cls-5{fill:#595959;}</style></defs><title>Computador</title><g id="Camada_2" data-name="Camada 2"><g id="Camada_3" data-name="Camada 3"><g id="Computador"><path id="Pescoco" class="cls-1" d="M266.91,364.07a66.64,66.64,0,0,1-39.31-71.68H174.46a66.64,66.64,0,0,1-39.31,71.68l-13.84,6H280.75Z"/><g id="Base"><rect class="cls-2" x="93.04" y="367.62" width="206.78" height="41.59" rx="12" ry="12"/></g><rect id="Tela" class="cls-3" x="19.06" y="21.23" width="353.54" height="251.29" rx="4.58" ry="4.58"/><path class="cls-4" d="M20.12,148.58l25.13-23.4-2.56-1.06,5.2,50.26a1.5,1.5,0,0,0,3,0L61.52,77.24,63,63.47H60l4.55,128.95.65,18.36c.06,1.6,2.68,2.14,2.95.4l16.73-111,2.34-15.51-2.95-.4,6.08,120.16.85,16.75a1.5,1.5,0,0,0,3,0L101.8,95.34l1.08-18h-3l3,128.95.43,18.36a1.5,1.5,0,0,0,3,0L115.45,82l1.29-20.25h-3l12.16,145.91,1.71,20.46a1.5,1.5,0,0,0,3,0l4.68-60.78,7.46-97,1.73-22.44h-3L146,151.08l.65,14.64c.07,1.6,2.65,2.15,2.95.4L160,105.46h-2.89l15.6,62.39c.44,1.75,2.78,1.19,2.95-.4l5.2-50.26-2.95.4,13.86,48.52c.49,1.73,2.76,1.2,2.95-.4L206.89,62.37l1.71-14.49-2.95.4,14.61,61.36,23.32,97.94,5.4,22.67a1.51,1.51,0,0,0,2.95-.4l3-145.76.43-20.61-2.95.4,12.13,74.52c.25,1.53,2.51,1.32,2.89,0l20.8-71.05-2.95-.4q3,58.76,6.07,117.52.31,5.84.62,11.67c.07,1.34-.2,3.36.3,4.66a1.51,1.51,0,0,0,2.95-.4c.15-4.86,1.36-9.88,2.05-14.67q2.43-16.81,4.91-33.61,5.57-38,11.19-75.93L316,58.67l-2.95-.4L316,116.09l4.66,92.33,1.08,21.42a1.5,1.5,0,0,0,3,0L339.88,85.75,342,65.21h-3l9.1,74.31,1.3,10.61a1.5,1.5,0,0,0,3,0l5.2-41.59h-3l8.67,65.85a1.51,1.51,0,0,0,2.95.4l7.8-23.4c.61-1.84-2.28-2.62-2.89-.8l-7.8,23.4,2.95.4-8.67-65.85a1.5,1.5,0,0,0-3,0l-5.2,41.59h3l-9.1-74.31L342,65.21a1.5,1.5,0,0,0-3,0L323.87,209.29l-2.16,20.55h3L321.79,172,317.13,79.7,316,58.27c-.08-1.59-2.69-2.16-2.95-.4Q303.83,120.4,294.69,183c-.83,5.7-2.26,11.67-2.45,17.45l2.95-.4c.27.72-.09-.29,0-.68a13.3,13.3,0,0,0-.16-2.81q-.27-4.89-.52-9.78-.84-16-1.67-32-1.85-35.66-3.68-71.31l-.85-16.47a1.51,1.51,0,0,0-2.95-.4l-20.8,71.05h2.89L255.33,63.07c-.28-1.71-2.91-1.24-2.95.4l-3,145.76-.43,20.61,2.95-.4-14.61-61.36L213.94,70.14l-5.4-22.67c-.42-1.77-2.76-1.17-2.95.4L193.44,151.23l-1.71,14.49,2.95-.4L180.81,116.8a1.51,1.51,0,0,0-2.95.4l-5.2,50.26,2.95-.4L160,104.67c-.34-1.37-2.64-1.49-2.89,0l-10.4,60.66,2.95.4-4.55-103.2-.65-14.64a1.5,1.5,0,0,0-3,0l-4.68,60.78-7.46,97-1.73,22.44h3L118.45,82.2l-1.71-20.46a1.5,1.5,0,0,0-3,0l-9.11,142.65-1.29,20.25h3l-3-128.95-.43-18.36a1.5,1.5,0,0,0-3,0L92.3,203.18l-1.08,18h3L88.13,101l-.85-16.75c-.08-1.59-2.68-2.16-2.95-.4l-16.73,111-2.34,15.51,2.95.4L63.67,81.83,63,63.47a1.5,1.5,0,0,0-3,0L49.4,160.62l-1.51,13.77h3l-5.2-50.26a1.52,1.52,0,0,0-2.56-1.06L18,146.46c-1.42,1.32.71,3.44,2.12,2.12Z"/><path id="Sombra" class="cls-5" d="M372.6,21H24.11a5,5,0,0,0-5,5V266.58a5.73,5.73,0,0,0,5.73,5.73h9.87V54.46A17.85,17.85,0,0,1,52.51,36.61H372.6Z"/><g id="Frame"><path class="cls-2" d="M383,0H8.67A8.67,8.67,0,0,0,0,8.67V285.08a8.67,8.67,0,0,0,8.67,8.67H383a8.67,8.67,0,0,0,8.67-8.67V8.67A8.67,8.67,0,0,0,383,0ZM372.6,264.58a7.94,7.94,0,0,1-7.94,7.94H27a7.94,7.94,0,0,1-7.94-7.94V29.17A7.94,7.94,0,0,1,27,21.23H364.66a7.94,7.94,0,0,1,7.94,7.94Z"/></g></g></g></g></svg>