<svg xmlns="http://www.w3.org/2000/svg" viewBox="0 0 236.43 509.11"><defs><style>.cls-1{fill:#fff;}</style></defs><title>facebook</title><g id="Layer_2" data-name="Layer 2"><g id="Layer_1-2" data-name="Layer 1"><path class="cls-1" d="M235.67,166.6c-1.6,17.92-3.11,35-4.66,52.05-.83,9.12-1.93,18.22-2.5,27.35-.23,3.73-1.73,4.92-5.2,5-18.5.2-37,.5-55.5.77-12.85.19-11.45-1.82-11.47,11.42-.06,43.87.07,87.74-.14,131.61-.08,15.45-1.32,30.9-1.37,46.35-.07,20.5.36,41,.88,61.49.13,5.07-1.46,6.56-6.52,6.52q-44-.33-88.08,0c-4.69,0-6.41-1.21-6.36-6.15.2-21.35,0-42.7,0-64.05,0-5.15.9-10.3.86-15.45-.46-55-1.06-110-1.48-164.94,0-4.34-1.45-5.87-5.8-5.81-14.18.19-28.36-.07-42.53.15-4.25.07-5.87-1-5.83-5.57q.29-37.53,0-75.06c0-4.39,1.3-5.78,5.71-5.7,13.84.24,27.69.1,41.53.09,6.8,0,6.81,0,6.83-7,0-16.85-.43-33.71.19-50.54.65-17.39.19-34.95,6.2-51.8,10-28,30.15-44.37,58.28-51.87C135.47.87,152.55-.14,169.78,0q30,.27,60,0c4.38,0,5.74,1.35,5.72,5.74-.08,22.18.11,44.37.27,66.56,0,3.49.31,7,.63,10.47.34,3.69-1.17,5-4.88,5q-18.26-.23-36.53,0c-6.83.07-13.66.34-20.47.85-11.36.85-16.76,6.4-17.12,18.08-.55,18.16-.65,36.34-1.12,54.5-.11,4.12,1.31,5.49,5.45,5.46,22.69-.15,45.37-.07,68.06-.07Z"/></g></g></svg>