<svg xmlns="http://www.w3.org/2000/svg" viewBox="0 0 507.74 508.32"><defs><style>.cls-1{fill:#fff;}</style></defs><title>instagram</title><g id="Layer_2" data-name="Layer 2"><g id="Layer_1-2" data-name="Layer 1"><path class="cls-1" d="M242.84.77C278,.87,313.21.64,348.28,2.61c22,1.24,44.63,3.62,65.56,10.08,47.86,14.78,75.63,49.78,87.32,97.59,3.32,13.58,4.68,27.9,5,41.91,1,53,1.88,106.05,1.55,159.07-.2,32.62-.38,65.44-8.93,97.38-11.25,42-38.08,70.26-77.59,86.88-19.5,8.2-40.08,11.38-61.28,11.48-63.8.31-127.61,1.81-191.4,1.13-29.37-.31-59-2.22-86.76-14.63-25-11.18-44.2-28.4-58.21-51.71A142.51,142.51,0,0,1,3.14,375c-.64-12-1.34-24-1.52-36.08C1,294-.86,249.1.48,204.27c.92-30.74-1-61.78,5.73-92.31C17.56,60.82,55.31,17.53,109,8.8c28.81-4.68,58.16-6,87.27-8.8Zm15,47.17c-27.86,0-55.74-.57-83.58.2-18.23.51-36.75,1.34-54.55,4.92C85.62,59.93,61.23,80.2,54.05,114.82c-5.37,25.9-7.69,52.83-7.92,79.33-.54,63.17-3.19,126.49,4.5,189.44C54,411.38,68.08,432.93,92.89,447c20.94,11.88,44,15.2,67.34,15.55q74.89,1.11,149.81,0c25.32-.37,50.71-2,75.88-4.83,20.11-2.23,37.33-12,50.62-27.54,17-19.79,22.46-43.9,23.93-69.1,1-17.78,1.66-35.62,1.58-53.43-.27-60,2.54-120.18-4.77-180C453.73,98.63,439.36,76.15,413.11,62c-19.93-10.71-41.84-13.29-63.8-13.9C318.84,47.3,288.33,47.94,257.84,47.93Z"/><path class="cls-1" d="M253.37,125.12c75.18-.16,130.87,58.22,130.56,130.41-.31,74.11-56.87,131.29-134.5,129.33-70.38-1.78-125.45-54.8-125.82-130.94C123.27,183.52,178.78,125.67,253.37,125.12Zm.3,45.7c-46.15-.08-84.26,36.19-84.43,84.16-.17,47.1,36.65,83.49,83.51,84.33,49.2.88,86.32-38.49,85.57-85.34C337.56,206.83,300.35,170.56,253.67,170.82Z"/><path class="cls-1" d="M419.2,119.62c1.42,18.48-16.25,31-30,30.6-19.84-.56-30.46-13.2-30.67-30.71-.22-18.28,13.68-30.08,30.6-30.29C408.56,89,420.59,105.75,419.2,119.62Z"/></g></g></svg>