<?xml version="1.0" encoding="UTF-8" standalone="no"?>
<svg
   xmlns:dc="http://purl.org/dc/elements/1.1/"
   xmlns:cc="http://creativecommons.org/ns#"
   xmlns:rdf="http://www.w3.org/1999/02/22-rdf-syntax-ns#"
   xmlns:svg="http://www.w3.org/2000/svg"
   xmlns="http://www.w3.org/2000/svg"
   xmlns:sodipodi="http://sodipodi.sourceforge.net/DTD/sodipodi-0.dtd"
   xmlns:inkscape="http://www.inkscape.org/namespaces/inkscape"
   viewBox="0 0 207.48 179.64"
   version="1.1"
   id="svg4703"
   sodipodi:docname="jornal.svg"
   inkscape:version="0.92.1 r15371">
  <metadata
     id="metadata4707">
    <rdf:RDF>
      <cc:Work
         rdf:about="">
        <dc:format>image/svg+xml</dc:format>
        <dc:type
           rdf:resource="http://purl.org/dc/dcmitype/StillImage" />
      </cc:Work>
    </rdf:RDF>
  </metadata>
  <sodipodi:namedview
     pagecolor="#ffffff"
     bordercolor="#666666"
     borderopacity="1"
     objecttolerance="10"
     gridtolerance="10"
     guidetolerance="10"
     inkscape:pageopacity="0"
     inkscape:pageshadow="2"
     inkscape:window-width="640"
     inkscape:window-height="480"
     id="namedview4705"
     showgrid="false"
     inkscape:zoom="1.3137386"
     inkscape:cx="103.74"
     inkscape:cy="89.82"
     inkscape:window-x="65"
     inkscape:window-y="24"
     inkscape:window-maximized="0"
     inkscape:current-layer="svg4703" />
  <defs
     id="defs4678">
    <style
       id="style4676">.cls-1{fill:gray;}</style>
  </defs>
  <title
     id="title4680">Jornal</title>
  <g
     id="Layer_2"
     data-name="Layer 2"
     style="fill:#ffffff">
    <g
       id="Jornal"
       style="fill:#ffffff">
      <path
         id="Jornal-2"
         data-name="Jornal"
         class="cls-1"
         d="M109.81,179.57c-28.48,0-57,.17-85.44-.08C13,179.38-.09,171.86,0,155.39.25,110.63.07,65.86.12,21.1A39.52,39.52,0,0,1,1,12.85C2.82,4.36,8.22.07,16.91,0,26.94,0,37,0,47,0q64.6,0,129.2,0a25.65,25.65,0,0,1,6.16.75c5.2,1.31,7.95,5,9.09,10,.33,1.44.86,2,2.42,2.06,8.56.31,13.58,5.6,13.58,14.22,0,43.22.05,86.44-.14,129.67,0,5.25-1.18,10.53-2.24,15.71-.88,4.27-5.33,7.16-9.85,7.14C166.77,179.5,138.29,179.57,109.81,179.57Zm74-11.44c-.37-6.9-1-13.49-1-20.09q-.14-64.26-.05-128.52c0-1.31,0-2.62-.12-3.93-.18-2.81-1.14-3.85-4-4.15a38.75,38.75,0,0,0-4.16-.17H18.67c-1.46,0-2.94,0-4.39.16-2.92.26-4.59,1.56-5.14,4.44a35.47,35.47,0,0,0-.52,6.66q0,51.18,0,102.36c0,10.11,0,20.22,0,30.34,0,3.76,1.25,6.81,4.35,8.95a20.74,20.74,0,0,0,11.88,3.95q78.5,0,157,0Zm14.06-74.65h0q0-31.15,0-62.3c0-1.31.13-2.62.08-3.93-.08-2.1-1.94-3.34-4.73-3.31-2.52,0-1.52,1.94-1.52,3.06q-.07,63.11,0,126.23a91.47,91.47,0,0,0,1.3,12.61c.12.81.94,2.23,1.93,2.2s1.69-1.49,1.86-2.37a44.9,44.9,0,0,0,1-8.25C197.93,136.09,197.89,114.79,197.89,93.48Z"
         style="fill:#ffffff" />
      <path
         id="Foto"
         class="cls-1"
         d="M51.75,19H71C79,19,83,22.45,83.22,30.5q.45,20.35,0,40.73C83.06,79.25,79,82.71,71,82.71H33.47c-9.26,0-13.09-3.29-13.33-12.64-.32-12.8-.1-25.61-.06-38.42a19,19,0,0,1,.54-3.89c1.27-5.89,4.68-8.69,10.75-8.75C38.17,19,45,19,51.75,19Z"
         style="fill:#ffffff" />
      <g
         id="Texto"
         style="fill:#ffffff">
        <path
           class="cls-1"
           d="M95.08,109.24H24.91c-4.18,0-5.91-1.8-5.91-6.11S20.84,97,25,97H165.57c3.11,0,4.53.89,5.47,3.32,1.06,2.71.53,6.5-1.46,7.91a7,7,0,0,1-3.86,1Q130.4,109.28,95.08,109.24Z"
           id="path4684"
           style="fill:#ffffff" />
        <path
           class="cls-1"
           d="M135,122.73c10.18,0,20.37.12,30.54-.07,3.38-.06,5.46,2.26,5.56,6.19s-2.08,6.19-5.57,6.19H104.48c-3.64,0-5.74-2.36-5.68-6.32s2-6,5.69-6Z"
           id="path4686"
           style="fill:#ffffff" />
        <path
           class="cls-1"
           d="M135,161.12q-15.27,0-30.54,0c-3.66,0-5.65-2.12-5.69-6s2-6.28,5.7-6.28q30.54,0,61.08,0c3.53,0,5.67,2.34,5.57,6.19-.09,3.14-1.5,6.23-5.58,6.15C155.39,161,145.21,161.12,135,161.12Z"
           id="path4688"
           style="fill:#ffffff" />
        <path
           class="cls-1"
           d="M137.83,58.16H107.75c-3.86,0-5.78-2-5.8-6.08s1.9-6.2,5.68-6.2h60.85c3.78,0,5.71,2.1,5.69,6.19s-1.95,6.09-5.8,6.09Z"
           id="path4690"
           style="fill:#ffffff" />
        <path
           class="cls-1"
           d="M138.06,19.81q15.4,0,30.8,0c3.51,0,5.32,2.07,5.32,6s-1.81,6-5.32,6H107.27c-3.51,0-5.32-2.08-5.32-6s1.81-6,5.32-6Q122.66,19.8,138.06,19.81Z"
           id="path4692"
           style="fill:#ffffff" />
        <path
           class="cls-1"
           d="M138.25,84.22h-30.8c-3.7,0-5.52-2-5.51-6.07s1.8-6,5.59-6h61.13c3.7,0,5.52,2,5.51,6.07s-1.8,6-5.59,6Z"
           id="path4694"
           style="fill:#ffffff" />
        <path
           class="cls-1"
           d="M51.68,134.17c-9,0-18.05-.15-27.07.07-3.69.09-5.34-3.08-5.36-6.11,0-3.79,2-6.26,5.27-6.26q27.19,0,54.38,0c3.22,0,5.38,2.67,5.31,6.28-.07,3.79-2.07,6-5.45,6Z"
           id="path4696"
           style="fill:#ffffff" />
        <path
           class="cls-1"
           d="M51.63,160.42H25c-3.06,0-4.63-1.07-5.42-3.66-.94-3.06-.06-6.64,2.12-7.95a5.33,5.33,0,0,1,2.62-.65q27.3-.06,54.59,0c3.2,0,5.22,2.38,5.27,6s-2,6.24-5.28,6.25C69.83,160.45,60.73,160.42,51.63,160.42Z"
           id="path4698"
           style="fill:#ffffff" />
      </g>
    </g>
  </g>
</svg>
