<?xml version="1.0" encoding="UTF-8" standalone="no"?>
<svg
   xmlns:dc="http://purl.org/dc/elements/1.1/"
   xmlns:cc="http://creativecommons.org/ns#"
   xmlns:rdf="http://www.w3.org/1999/02/22-rdf-syntax-ns#"
   xmlns:svg="http://www.w3.org/2000/svg"
   xmlns="http://www.w3.org/2000/svg"
   xmlns:sodipodi="http://sodipodi.sourceforge.net/DTD/sodipodi-0.dtd"
   xmlns:inkscape="http://www.inkscape.org/namespaces/inkscape"
   viewBox="0 0 141.97 179.43"
   version="1.1"
   id="svg30"
   sodipodi:docname="lampada.svg"
   inkscape:version="0.92.1 r15371">
  <metadata
     id="metadata34">
    <rdf:RDF>
      <cc:Work
         rdf:about="">
        <dc:format>image/svg+xml</dc:format>
        <dc:type
           rdf:resource="http://purl.org/dc/dcmitype/StillImage" />
      </cc:Work>
    </rdf:RDF>
  </metadata>
  <sodipodi:namedview
     pagecolor="#ffffff"
     bordercolor="#666666"
     borderopacity="1"
     objecttolerance="10"
     gridtolerance="10"
     guidetolerance="10"
     inkscape:pageopacity="0"
     inkscape:pageshadow="2"
     inkscape:window-width="686"
     inkscape:window-height="480"
     id="namedview32"
     showgrid="false"
     inkscape:zoom="1.3152762"
     inkscape:cx="70.985001"
     inkscape:cy="89.714996"
     inkscape:window-x="75"
     inkscape:window-y="34"
     inkscape:window-maximized="0"
     inkscape:current-layer="Layer_2" />
  <defs
     id="defs4">
    <style
       id="style2">.cls-1{fill:gray;}</style>
  </defs>
  <title
     id="title6">Lampada</title>
  <g
     id="Layer_2"
     data-name="Layer 2">
    <g
       id="Lampada"
       style="fill:#ffffff">
      <path
         class="cls-1"
         d="M71.23,148.06c-7.1,0-14.2-.13-21.29.06-3.35.09-4.88-.54-5.08-4.46a121.25,121.25,0,0,0-2.5-17.31,47.26,47.26,0,0,0-8.18-19C22.31,91.05,18.79,73,24.93,53.64c6.51-20.47,26.62-34.06,48.53-32.92a48.86,48.86,0,0,1,46.31,42.15c1.88,15.59-1.06,30.08-10.41,42.67-7.67,10.33-10.14,22.08-11.45,34.31-.88,8.18-.66,8.2-8.74,8.2Zm-19-7.77h9.6c-1.34-5.48-3-10.54-3.72-15.72a69.23,69.23,0,0,1-.42-14c.07-1.2,2.13-2.94,3.5-3.18.91-.16,2.62,1.71,3.23,3,.82,1.74.91,3.81,1.32,5.74,1.19-1.61,1.17-3.34,1.84-4.72a25.13,25.13,0,0,1,3.28-4.26c1.35,1.33,3,2.46,3.93,4s.76,3.38,1.08,5.1c1.31-2.13,1.31-4.31,2.13-6.11a5.34,5.34,0,0,1,3.46-2.83c.93-.12,2.42,1.51,3.08,2.69a7.08,7.08,0,0,1,.68,4c-.55,5-1.18,10.1-2,15.1-.63,3.67-1.68,7.27-2.61,11.2h9.55c.3-1.83.6-3.46.83-5.1,1.66-11.94,4.38-23.43,11.91-33.34,7.33-9.65,10.18-20.69,10-32.84-.37-20.48-14.89-37.21-36-40.71C58.29,25.29,38.16,37.26,32,55.58,26.66,71.66,29.12,87,38.8,100.82A64.64,64.64,0,0,1,50,126.56C50.8,131.06,51.48,135.58,52.25,140.29Zm15-.12c7.88,1.16,7.73,1.12,9.55-5.83,1.46-5.58,3.48-11,4.95-16.58.58-2.22.33-4.65.46-7l-1.5,0c-.18,1.47,0,3.15-.62,4.35a31.33,31.33,0,0,1-3.85,4.76,39.57,39.57,0,0,1-3.64-4.9c-.68-1.25-.69-2.86-1-4.32-1.18,1.61-1,3.29-1.67,4.51A31,31,0,0,1,66,119.84a31.88,31.88,0,0,1-3.53-4.55c-.69-1.3-.71-3-1-4.46L60.4,111c-.06,1.43-.46,3-.12,4.29.66,2.63,1.89,5.11,2.6,7.73C64.43,128.73,65.8,134.51,67.22,140.16Z"
         id="path8"
         style="fill:#ffffff" />
      <path
         class="cls-1"
         d="M71.06,157.24c-6.68,0-13.35,0-20,0-2.71,0-5.41-.37-5.44-3.68s2.58-3.8,5.35-3.79q20.45.05,40.89,0c2.63,0,5,.6,5,3.66s-2.33,3.79-4.93,3.79Q81.49,157.25,71.06,157.24Z"
         id="path10"
         style="fill:#ffffff" />
      <path
         class="cls-1"
         d="M71.3,168.08H86.7c2.51,0,4.45.76,4.5,3.67.05,2.76-1.73,3.44-4.12,3.52-.88,0-2.24.29-2.53.86-1.72,3.48-4.76,3.32-7.86,3.28q-5.62-.08-11.24,0c-3,0-5.82.12-7.52-3.14-.35-.67-1.89-1-2.9-1-2.51-.13-4.42-1.39-3.8-3.73.38-1.43,2.69-3.18,4.25-3.31C60.73,167.82,66,168.08,71.3,168.08Z"
         id="path12"
         style="fill:#ffffff" />
      <path
         class="cls-1"
         d="M71.15,166c-6.12,0-12.23,0-18.35,0-2.29,0-4.29-.43-4.38-3.24s1.71-3.9,4.28-3.9c12.37,0,24.75-.12,37.12.15,1.46,0,3.78,2,4.09,3.49.53,2.43-1.54,3.51-4,3.5C83.66,166,77.41,166,71.15,166Z"
         id="path14"
         style="fill:#ffffff" />
      <path
         class="cls-1"
         d="M71.66,0c2.42,3.16,2.46,9.67.33,12.71C69.88,10.44,69.62,3.95,71.66,0Z"
         id="path16"
         style="fill:#ffffff" />
      <path
         class="cls-1"
         d="M110.25,24.08l9.63-9.53c.17,4.54-4.56,9.59-8.55,10.7Z"
         id="path18"
         style="fill:#ffffff" />
      <path
         class="cls-1"
         d="M20.48,16c2.72,2.73,5.46,5.43,8.12,8.21a1.54,1.54,0,0,1-.08,1.47c-.25.33-1.18.62-1.37.45-2.93-2.69-5.78-5.46-8.66-8.21Z"
         id="path20"
         style="fill:#ffffff" />
      <path
         class="cls-1"
         d="M13.56,66.24H0C2,63.09,9.84,62.83,13.56,66.24Z"
         id="path22"
         style="fill:#ffffff" />
      <path
         class="cls-1"
         d="M142,66.34H128.78l-.32-1.46c1.51-.37,3.06-1.15,4.52-1C135.71,64.15,139.1,62.4,142,66.34Z"
         id="path24"
         style="fill:#ffffff" />
      <path
         class="cls-1"
         d="M73.77,37.52C52.46,39.45,42.65,51.46,41.06,71.38c-4.07-4.28-.78-16.5,5.56-24.23C53.71,38.5,66.94,33.09,73.77,37.52Z"
         id="path26"
         style="fill:#ffffff" />
    </g>
  </g>
</svg>
