<svg xmlns="http://www.w3.org/2000/svg" viewBox="0 0 159 365.07"><defs><style>.cls-1{fill:#98591f;}.cls-2{fill:#804d1c;}.cls-3,.cls-4{fill:none;}.cls-4{stroke:#fefefe;stroke-linecap:square;stroke-linejoin:round;}</style></defs><title>Violao</title><g id="Camada_2" data-name="Camada 2"><g id="Camada_5" data-name="Camada 5"><g id="Violao"><path id="Corpo" class="cls-1" d="M79.55,157.27s-31.41-2.46-45.4,8.73c-8.73,7-11.81,23.86-9.6,32.3,5.24,20.08,14.18,22.38,7,33.18C10.58,262.92-1.21,279.32.1,298.71c4.37,64.61,79.45,66.35,79.45,66.35Z"/><path id="Corpo-2" data-name="Corpo" class="cls-2" d="M79.45,157.27s31.41-2.46,45.4,8.73c8.73,7,11.81,23.86,9.6,32.3-5.24,20.08-14.18,22.38-7,33.18,21,31.43,32.74,47.83,31.43,67.23-4.37,64.61-79.45,66.35-79.45,66.35Z"/><path id="Rastilho" d="M101.28,306.51H57.72a4.37,4.37,0,1,0,0,8.73h43.56a4.37,4.37,0,1,0,0-8.73Z"/><path id="Buraco" d="M102.15,261.06a22.7,22.7,0,0,0-22.6-22.7h-.1a22.7,22.7,0,0,0,0,45.4h.1A22.7,22.7,0,0,0,102.15,261.06Z"/><g id="Braco"><path class="cls-3" d="M87.84,15.78a3.06,3.06,0,0,0-3.06,3.06V42.41a3.06,3.06,0,0,0,6.11,0V18.83A3.06,3.06,0,0,0,87.84,15.78Z"/><path class="cls-3" d="M71.26,15.78a3.06,3.06,0,0,0-3.06,3.06V42.41a3.06,3.06,0,0,0,6.11,0V18.83A3.06,3.06,0,0,0,71.26,15.78Z"/><path class="cls-3" d="M71.26,15.78a3.06,3.06,0,0,0-3.06,3.06V42.41a3.06,3.06,0,0,0,6.11,0V18.83A3.06,3.06,0,0,0,71.26,15.78Z"/><path class="cls-3" d="M87.84,15.78a3.06,3.06,0,0,0-3.06,3.06V42.41a3.06,3.06,0,0,0,6.11,0V18.83A3.06,3.06,0,0,0,87.84,15.78Z"/><path d="M96.14,12.28,84.79.93C83,.49,81-.42,79.55.22c-1.43-.64-3.45.27-5.24.71L63,12.28a229.59,229.59,0,0,0-1.75,35.8c.29,6.8,5.24,8.73,5.24,16.59,0,35-2.62,133.8-2.62,133.8a7.64,7.64,0,0,0,7.64,7.64H87.63a7.64,7.64,0,0,0,7.64-7.64S92.65,99.7,92.65,64.67c0-7.86,4.95-9.79,5.24-16.59A229.59,229.59,0,0,0,96.14,12.28ZM74.31,42.41a3.06,3.06,0,0,1-6.11,0V18.83a3.06,3.06,0,0,1,6.11,0Zm16.59,0a3.06,3.06,0,0,1-6.11,0V18.83a3.06,3.06,0,0,1,6.11,0Z"/></g><line id="Traste" class="cls-4" x1="66.89" y1="65.98" x2="92.21" y2="65.98"/></g></g></g></svg>