<svg xmlns="http://www.w3.org/2000/svg" viewBox="0 0 717.38 505.09"><defs><style>.cls-1{fill:#fff;}</style></defs><title>youtube</title><g id="Layer_2" data-name="Layer 2"><g id="Layer_1-2" data-name="Layer 1"><path class="cls-1" d="M358.08,505.09c-74.55-2.45-149.13-4.37-223.65-7.71-19.56-.88-39.15-5.22-58.34-9.64-35.69-8.22-55.89-32.9-61.68-67.51C8.15,382.86,3.51,345,1.71,307.14c-3-63.35-2.61-126.85,5.77-189.91,2.24-16.88,6.42-33.66,11.3-50C27.61,37.68,49,21.21,78.24,14,126.81,2,176.46.58,226.05.32q141-.75,282.06.36C550.6,1,593,3.71,634.82,12.86c38.42,8.4,61.76,31.62,68.15,69.31a946.7,946.7,0,0,1,12.7,113.1c3,63.35,2.61,126.85-5.77,189.91-2.24,16.88-6.42,33.66-11.3,50-8.83,29.55-30.28,45.92-59.45,53.24-43,10.79-87,12.65-131,13.34-50,.79-100,.18-150,.18ZM285,343.88,477.6,244,285,142.82Z"/></g></g></svg>