<svg xmlns="http://www.w3.org/2000/svg" viewBox="0 0 160.14 138.49"><defs><style>.cls-1{fill:#f79421;}.cls-2{fill:#faaf3a;}.cls-3{fill:#fab03d;}.cls-4{fill:#f7931f;}</style></defs><title>Ativo 1</title><g id="Camada_2" data-name="Camada 2"><g id="Camada_1-2" data-name="Camada 1"><path class="cls-1" d="M69.11,0c-.1.56.41.73.69,1C72.41,3.66,75,6.32,77.7,8.89c.83.8.72,1.22,0,1.94-1.71,1.62-3.33,3.33-5.11,5.12-1.09-2.37-2.16-4.58-3.13-6.84-.4-.94-.64-1-1.4-.28Q38.27,38.64,8.46,68.39c-.73.73-.64,1.09,0,1.76Q38.26,99.86,68,129.63c.75.75,1,.79,1.5-.25q13.45-29.61,27-59.18a2.21,2.21,0,0,0-.11-2Q89.29,52.73,82.24,37.28a2.38,2.38,0,0,1,0-2.24q3.21-6.88,6.32-13.81c.36-.81.56-.95,1.24-.26q23.82,23.86,47.69,47.68c.82.82.2,1.12-.26,1.57L96.64,110.78q-13.45,13.45-26.88,26.92c-.73.73-1.06.66-1.74,0Q34.32,103.91.56,70.21c-.74-.74-.76-1.08,0-1.84Q34.19,34.81,67.77,1.19c.34-.34.9-.56.87-1.19Zm.22,134.87a2.89,2.89,0,0,0,.48-.35l10.67-14.68,12.29-16.9q6.32-8.69,12.64-17.38,5.44-7.49,10.86-15c.23-.32.64-.63.42-1s-.66-.16-1-.16c-4.92,0-9.84.07-14.76-.05A2.66,2.66,0,0,0,98,71.23C95,78.12,91.84,85,88.71,91.83c-2.43,5.33-4.9,10.65-7.34,16Q76,119.57,70.65,131.34A13.58,13.58,0,0,0,69.33,134.87Z"/><path class="cls-2" d="M69.33,134.87a13.58,13.58,0,0,1,1.32-3.52Q76,119.56,81.37,107.82c2.44-5.33,4.91-10.65,7.34-16C91.84,85,95,78.12,98,71.23a2.66,2.66,0,0,1,2.91-1.92c4.92.13,9.84,0,14.76.05.34,0,.82-.18,1,.16s-.19.71-.42,1q-5.43,7.5-10.86,15-6.31,8.7-12.64,17.38l-12.29,16.9L69.82,134.52A2.89,2.89,0,0,1,69.33,134.87Z"/><path class="cls-3" d="M87.6,122.89c1,2.24,2,4.3,2.91,6.37.71,1.58.69,1.59,2,.32l46.41-46.41c4.3-4.3,8.58-8.61,12.91-12.88.66-.65.6-1,0-1.58Q121.93,38.92,92.13,9.07c-.75-.75-1-.67-1.42.28Q79.87,33.21,69,57c-1.74,3.81-3.45,7.63-5.22,11.43a2.31,2.31,0,0,0,0,2.14c4.74,10.33,9.43,20.69,14.17,31a2.28,2.28,0,0,1,0,2.13q-3.21,6.89-6.31,13.82c-.37.83-.61.94-1.28.26Q46.54,94,22.72,70.26c-.74-.74-.26-1,.2-1.49L70,21.68Q80.23,11.46,90.43,1.22c.65-.66,1-.69,1.68,0Q125.85,35,159.65,68.74c.68.68.64,1,0,1.67Q125.8,104.19,92,138c-.56.56-.87.68-1.49,0-2.73-2.81-5.52-5.57-8.31-8.32-.51-.5-.69-.82-.07-1.41C84,126.59,85.72,124.78,87.6,122.89ZM25,69.62c6.69,0,13.36,0,20,0a1.46,1.46,0,0,0,1.31-.83c2.45-3.54,4.93-7.05,7.38-10.59q8.84-12.76,17.67-25.54c2.45-3.54,4.87-7.09,7.32-10.63Q84.47,13.8,90.22,5.57a1.52,1.52,0,0,0,.29-1.42Z"/><path class="cls-4" d="M25,69.62,90.51,4.15a1.52,1.52,0,0,1-.29,1.42Q84.47,13.8,78.76,22.05c-2.45,3.54-4.87,7.09-7.32,10.63Q62.61,45.46,53.77,58.22c-2.45,3.54-4.93,7.05-7.38,10.59a1.46,1.46,0,0,1-1.31.83C38.4,69.61,31.73,69.62,25,69.62Z"/></g></g></svg>